<svg xmlns="http://www.w3.org/2000/svg" xmlns:xlink="http://www.w3.org/1999/xlink" preserveAspectRatio="xMidYMid" width="1000" height="1000" viewBox="0 0 1000 1000">
  <defs>
    <style>
      .cls-1, .cls-2 {
        fill: #101010;
      }

      .cls-1, .cls-2, .cls-3 {
        stroke: #000;
      }

      .cls-2, .cls-3 {
        fill-rule: evenodd;
      }

      .cls-3 {
        fill: #000;
      }
    </style>
  </defs>
  <g>
    <rect x="398" y="270" width="330" height="44" rx="20" ry="20" class="cls-1"/>
    <rect x="398" y="294" width="47" height="374" class="cls-1"/>
    <path d="M705.514,352.011 L728.000,389.215 L603.491,456.992 L581.005,419.788 L705.514,352.011 Z" class="cls-2"/>
    <path d="M595.500,415.000 C608.479,415.000 619.000,425.521 619.000,438.500 L619.000,714.500 C619.000,727.479 608.479,738.000 595.500,738.000 C582.521,738.000 572.000,727.479 572.000,714.500 L572.000,438.500 C572.000,425.521 582.521,415.000 595.500,415.000 Z" class="cls-2"/>
    <rect x="681" y="292" width="47" height="97" class="cls-1"/>
    <path d="M589.142,690.296 L724.045,599.131 C733.358,592.838 746.911,596.373 754.316,607.027 C761.722,617.682 760.175,631.421 750.862,637.714 L615.960,728.879 C606.647,735.173 593.094,731.637 585.688,720.983 C578.283,710.329 579.829,696.590 589.142,690.296 Z" class="cls-2"/>
    <rect x="398" y="608" width="47" height="129" rx="23" ry="23" class="cls-1"/>
    <path d="M283.188,617.149 L434.498,691.455 C442.672,695.469 444.450,708.659 438.467,720.915 C432.484,733.170 421.007,739.851 412.832,735.837 L261.523,661.531 C253.348,657.516 251.570,644.327 257.553,632.071 C263.536,619.815 275.013,613.135 283.188,617.149 Z" class="cls-2"/>
    <path d="M278.000,376.000 C291.255,376.000 302.000,386.745 302.000,400.000 L302.000,640.000 C302.000,653.255 291.255,664.000 278.000,664.000 C264.745,664.000 254.000,653.255 254.000,640.000 L254.000,400.000 C254.000,386.745 264.745,376.000 278.000,376.000 Z" class="cls-2"/>
    <rect x="482" y="275" width="48" height="504" rx="20.5" ry="20.5" class="cls-1"/>
  </g>
  <g>
    <path d="M221.000,230.000 L221.000,220.000 L797.000,220.000 L797.000,230.000 L221.000,230.000 Z" class="cls-3"/>
    <path d="M221.000,220.000 L231.000,220.000 L231.000,674.000 L221.000,674.000 L221.000,220.000 Z" class="cls-3"/>
    <path d="M787.000,220.000 L797.000,220.000 L797.000,674.000 L787.000,674.000 L787.000,220.000 Z" class="cls-3"/>
    <path d="M221.000,673.852 L224.654,668.009 L511.991,821.148 L508.337,826.991 L221.000,673.852 Z" class="cls-3"/>
    <path d="M506.000,821.148 L509.654,826.991 L796.991,673.852 L793.337,668.009 L506.000,821.148 Z" class="cls-3"/>
  </g>
</svg>
